# xmcd
# Copyright (C) 1995-1998 Ti Kan
#
# Track frame offsets:
#       150
#       18601
#       37052
#
# Disc length: 733 seconds
#
# Revision: 0
# Processed by: cddbd v1.5.2PL0 Copyright (c) Steve Scherf et al.
# Submitted via: CD-Transfer v1.0
#
DISCID=2102db03
DTITLE=Timbaland - 
DYEAR=1900
DGENRE=
TTITLE0=Main
TTITLE1=Instrumental
TTITLE2=Acapella
EXTD=
EXTT0=
EXTT1=
EXTT2=
PLAYORDER=
